# xmcd CD database file
#
# Track frame offsets:
#	150
#	23372
#	35425
#	55003
#	71886
#	91894
#	105758
#	121233
#	144912
#	165147
#	181410
#	201410
#	218810
#	242137
#
# Disc length: 3292 seconds
#
# Revision: 0
# Processed by: cddbd v1.5.1PL2 Copyright (c) Steve Scherf et al.
# Submitted via: CDex 1.51
#
DISCID=af0cda0e
DTITLE=Telemetry Orchestra - Empire
DYEAR=2006
DGENRE=New Age
TTITLE0=Under The Cherry Tree
TTITLE1=A Pinch Of Distraction
TTITLE2=Flicker
TTITLE3=Hazy Elevator
TTITLE4=Miles Away
TTITLE5=Face It Now
TTITLE6=Channel Three
TTITLE7=Skeleton Key
TTITLE8=Hole In The Roof
TTITLE9=Inside (Watching)
TTITLE10=Shine
TTITLE11=Tigers In Trees
TTITLE12=Pimlico
TTITLE13=Untitled
EXTD=YEAR: 2006
EXTT0=
EXTT1=
EXTT2=
EXTT3=
EXTT4=
EXTT5=
EXTT6=
EXTT7=
EXTT8=
EXTT9=
EXTT10=
EXTT11=
EXTT12=
EXTT13=
PLAYORDER=
